<?xml version="1.0" encoding="UTF-8" standalone="no"?>
<svg width="294px" height="165px" viewBox="0 0 294 165" version="1.1" xmlns="http://www.w3.org/2000/svg" xmlns:xlink="http://www.w3.org/1999/xlink">
    <!-- Generator: Sketch 3.8.3 (29802) - http://www.bohemiancoding.com/sketch -->
    <title>Shape</title>
    <desc>Created with Sketch.</desc>
    <defs></defs>
    <g id="Page-1" stroke="none" stroke-width="1" fill="none" fill-rule="evenodd">
        <g id="sort-(1)" fill="#333333">
            <g id="Capa_1">
                <g id="Group">
                    <path d="M19.092,164.452 L274.905,164.452 C279.854,164.452 284.138,162.645 287.753,159.028 C291.366,155.412 293.18,151.13 293.18,146.181 C293.18,141.232 291.367,136.952 287.753,133.331 L159.846,5.424 C156.232,1.812 151.951,0 146.999,0 C142.047,0 137.766,1.812 134.149,5.424 L6.242,133.331 C2.625,136.948 0.818,141.232 0.818,146.181 C0.818,151.129 2.625,155.412 6.242,159.028 C9.863,162.645 14.144,164.452 19.092,164.452 L19.092,164.452 Z" id="Shape" transform="translate(146.999000, 82.226000) scale(1, -1) translate(-146.999000, -82.226000) "></path>
                </g>
            </g>
        </g>
    </g>
</svg>