<?xml version="1.0" encoding="UTF-8" standalone="no"?>
<svg width="8px" height="10px" viewBox="0 0 8 10" version="1.1" xmlns="http://www.w3.org/2000/svg" xmlns:xlink="http://www.w3.org/1999/xlink">
    <!-- Generator: Sketch 3.8.3 (29802) - http://www.bohemiancoding.com/sketch -->
    <title>sort</title>
    <desc>Created with Sketch.</desc>
    <defs></defs>
    <g id="Page-1" stroke="none" stroke-width="1" fill="none" fill-rule="evenodd">
        <g id="sort" fill="#A8AAA9">
            <g id="Capa_1">
                <g id="Group">
                    <path d="M0.474925373,4.09084577 L6.83843284,4.09084577 C6.96154229,4.09084577 7.06810945,4.04589552 7.15803483,3.9559204 C7.24791045,3.86597015 7.29303483,3.75945274 7.29303483,3.63634328 C7.29303483,3.51323383 7.24793532,3.40676617 7.15803483,3.31669154 L3.97626866,0.134925373 C3.88636816,0.0450746269 3.77987562,0 3.65669154,0 C3.53350746,0 3.42701493,0.0450746269 3.3370398,0.134925373 L0.155273632,3.31669154 C0.0652985075,3.40666667 0.0203482587,3.51323383 0.0203482587,3.63634328 C0.0203482587,3.75942786 0.0652985075,3.86597015 0.155273632,3.9559204 C0.245348259,4.04589552 0.351840796,4.09084577 0.474925373,4.09084577 L0.474925373,4.09084577 Z" id="Shape"></path>
                    <path d="M6.83843284,5.9091791 L0.474925373,5.9091791 C0.351741294,5.9091791 0.245248756,5.95415423 0.155273632,6.04402985 C0.0652985075,6.13400498 0.0203482587,6.24049751 0.0203482587,6.36360697 C0.0203482587,6.48671642 0.0652985075,6.59328358 0.155273632,6.68320896 L3.3370398,9.86492537 C3.42711443,9.9549005 3.53360697,9.99995025 3.65669154,9.99995025 C3.77977612,9.99995025 3.88636816,9.9549005 3.97626866,9.86492537 L7.15803483,6.68318408 C7.24791045,6.59328358 7.29303483,6.48671642 7.29303483,6.36358209 C7.29303483,6.24049751 7.24793532,6.13400498 7.15803483,6.04400498 C7.06813433,5.95405473 6.96154229,5.9091791 6.83843284,5.9091791 L6.83843284,5.9091791 Z" id="Shape"></path>
                </g>
            </g>
        </g>
    </g>
</svg>